<!DOCTYPE svg PUBLIC "-//W3C//DTD SVG 1.1//EN" "http://www.w3.org/Graphics/SVG/1.1/DTD/svg11.dtd">
<!-- Uploaded to: SVG Repo, www.svgrepo.com, Transformed by: SVG Repo Mixer Tools -->
<svg fill="#001F6A" width="64px" height="64px" viewBox="0 0 512.00 512.00" xmlns="http://www.w3.org/2000/svg" transform="matrix(-1, 0, 0, 1, 0, 0)">
<g id="SVGRepo_bgCarrier" stroke-width="0"/>
<g id="SVGRepo_tracerCarrier" stroke-linecap="round" stroke-linejoin="round"/>
<g id="SVGRepo_iconCarrier">
<title>ionicons-v5-o</title>
<path d="M160,256a16,16,0,0,1,16-16H320V136c0-32-33.79-56-64-56H104a56.06,56.06,0,0,0-56,56V376a56.06,56.06,0,0,0,56,56H264a56.06,56.06,0,0,0,56-56V272H176A16,16,0,0,1,160,256Z"/>
<path d="M459.31,244.69l-80-80a16,16,0,0,0-22.62,22.62L409.37,240H320v32h89.37l-52.68,52.69a16,16,0,1,0,22.62,22.62l80-80a16,16,0,0,0,0-22.62Z"/>
</g>
</svg>